<?xml version="1.0" encoding="UTF-8"?>
<svg version="1.1" xmlns="http://www.w3.org/2000/svg" width="512" height="512">
<path d="M0 0 C0.81807129 0.16628906 1.63614258 0.33257812 2.47900391 0.50390625 C24.96737507 5.23000877 44.46097478 14.28398684 65 25 C65 136.87 65 248.74 65 364 C60.90557285 362.36222914 57.43884267 360.59751387 53.625 358.4375 C-11.24392206 323.05519808 -85.94448935 335.2757639 -153.5982666 355.05181885 C-163.51424694 357.97591677 -173.41276857 360.95897243 -183.3125 363.9375 C-217.22961712 374.14100918 -251.0000478 384.20721256 -286 390 C-287.5476001 390.26466064 -287.5476001 390.26466064 -289.12646484 390.53466797 C-315.73075066 394.93455723 -345.52698001 395.53320667 -372 390 C-372.83402344 389.82839355 -373.66804688 389.65678711 -374.52734375 389.47998047 C-396.62894336 384.77456 -417.41386537 376.19207693 -437 365 C-437 253.13 -437 141.26 -437 26 C-432.71171348 27.71531461 -428.66337931 29.65126517 -424.5625 31.75 C-405.06436464 41.58277461 -385.42879662 47.95668327 -364 52 C-363.28714844 52.13567383 -362.57429688 52.27134766 -361.83984375 52.41113281 C-303.97737505 62.78546432 -243.46118847 42.5437295 -188.6875 26.0625 C-121.12026627 5.73173323 -121.12026627 5.73173323 -87 0 C-85.95150879 -0.17644043 -84.90301758 -0.35288086 -83.82275391 -0.53466797 C-56.87318485 -4.83926116 -26.81173025 -5.58554807 0 0 Z " fill="#DD3128" transform="translate(442,61)"/>
<path d="M0 0 C0.81807129 0.16628906 1.63614258 0.33257812 2.47900391 0.50390625 C24.96737507 5.23000877 44.46097478 14.28398684 65 25 C65 136.87 65 248.74 65 364 C60.90557285 362.36222914 57.43884267 360.59751387 53.625 358.4375 C-11.24392206 323.05519808 -85.94448935 335.2757639 -153.5982666 355.05181885 C-163.51424694 357.97591677 -173.41276857 360.95897243 -183.3125 363.9375 C-217.22961712 374.14100918 -251.0000478 384.20721256 -286 390 C-287.5476001 390.26466064 -287.5476001 390.26466064 -289.12646484 390.53466797 C-315.73075066 394.93455723 -345.52698001 395.53320667 -372 390 C-372.83402344 389.82839355 -373.66804688 389.65678711 -374.52734375 389.47998047 C-396.62894336 384.77456 -417.41386537 376.19207693 -437 365 C-437 253.13 -437 141.26 -437 26 C-432.71171348 27.71531461 -428.66337931 29.65126517 -424.5625 31.75 C-405.06436464 41.58277461 -385.42879662 47.95668327 -364 52 C-363.28714844 52.13567383 -362.57429688 52.27134766 -361.83984375 52.41113281 C-303.97737505 62.78546432 -243.46118847 42.5437295 -188.6875 26.0625 C-121.12026627 5.73173323 -121.12026627 5.73173323 -87 0 C-85.95150879 -0.17644043 -84.90301758 -0.35288086 -83.82275391 -0.53466797 C-56.87318485 -4.83926116 -26.81173025 -5.58554807 0 0 Z M-88 5 C-90.98828125 5.49804688 -90.98828125 5.49804688 -93.9765625 5.99609375 C-124.67584386 11.34019328 -154.88213047 20.23614095 -184.5546875 29.62109375 C-193.9672873 32.56727769 -203.44730977 35.29898111 -212.90820312 38.08496094 C-215.49915621 38.85177175 -218.08662541 39.62830401 -220.671875 40.4140625 C-239.17910538 46.01731034 -257.97983776 50.52561874 -277 54 C-277.76505859 54.14034668 -278.53011719 54.28069336 -279.31835938 54.42529297 C-284.5336046 55.36897225 -289.75934768 56.21081662 -295 57 C-295.99773437 57.15879639 -295.99773437 57.15879639 -297.015625 57.32080078 C-338.52308243 63.76548721 -392.84093802 59.20724968 -428.453125 34.7265625 C-430.76308533 32.81295706 -430.76308533 32.81295706 -433 33 C-433 141.57 -433 250.14 -433 362 C-419.78433349 369.57227237 -419.78433349 369.57227237 -406.0625 375.6875 C-405.10142334 376.05633301 -404.14034668 376.42516602 -403.15014648 376.80517578 C-369.22562607 389.371841 -330.72899966 392.71153783 -295 387 C-294.02256836 386.8546582 -293.04513672 386.70931641 -292.03808594 386.55957031 C-262.67153305 382.1585404 -233.90069003 374.93902423 -205.65087891 365.84619141 C-201.92805834 364.65782374 -198.18781312 363.53556465 -194.4375 362.4375 C-193.46417725 362.15169067 -193.46417725 362.15169067 -192.47119141 361.86010742 C-188.34751796 360.65899381 -184.21295528 359.49964788 -180.07421875 358.3515625 C-179.02202148 358.05967041 -177.96982422 357.76777832 -176.88574219 357.46704102 C-174.7081192 356.86296096 -172.53038436 356.25928395 -170.35253906 355.65600586 C-164.0808509 353.90518327 -157.87414663 352.02844217 -151.6875 350 C-134.04483905 344.30015134 -115.93365474 340.23367601 -97.75 336.6875 C-96.51475586 336.44515625 -95.27951172 336.2028125 -94.00683594 335.953125 C-77.92779561 332.90521053 -62.5188422 331.62687835 -46.17626953 331.62939453 C-43.03231621 331.62504471 -39.88979838 331.58865721 -36.74609375 331.55078125 C-17.46408814 331.44535646 1.67954891 333.77611938 20 340 C20.80614746 340.26796387 21.61229492 340.53592773 22.44287109 340.81201172 C34.15153486 344.73612252 45.09882683 349.24186343 55.859375 355.3125 C58.69941857 357.15777187 58.69941857 357.15777187 61 357 C61 248.43 61 139.86 61 28 C45.72057926 19.78089018 45.72057926 19.78089018 29.9375 13.125 C28.92856689 12.75552246 27.91963379 12.38604492 26.88012695 12.00537109 C18.02455526 8.84852702 9.22767027 6.69534052 0 5 C-0.70066589 4.86625977 -1.40133179 4.73251953 -2.12322998 4.59472656 C-15.19656042 2.12807477 -27.90307607 1.51447041 -41.1875 1.625 C-42.17545563 1.62932037 -43.16341125 1.63364075 -44.18130493 1.63809204 C-58.98647881 1.71391631 -73.40671339 2.35026332 -88 5 Z " fill="#CCC8C6" transform="translate(442,61)"/>
<path d="M0 0 C0.66 0 1.32 0 2 0 C3.57277973 4.2152474 5.13917792 8.43278979 6.69970703 12.65258789 C7.2314862 14.08780763 7.7650041 15.52238439 8.30029297 16.95629883 C9.06936227 19.01737601 9.83215096 21.08068392 10.59375 23.14453125 C10.83436157 23.78526077 11.07497314 24.4259903 11.32287598 25.08613586 C12.34897405 27.88352941 13 29.99163868 13 33 C16.8966516 31.91959584 20.79225996 30.835482 24.6875 29.75 C25.82968994 29.43224609 26.97187988 29.11449219 28.14868164 28.78710938 C35.09814256 26.84381312 41.99433439 24.81615757 48.83984375 22.53125 C51 22 51 22 53 23 C42.77 33.23 32.54 43.46 22 54 C24.35031192 61.92592206 24.35031192 61.92592206 27.04296875 69.68359375 C27.56987305 71.10381836 27.56987305 71.10381836 28.10742188 72.55273438 C28.83789392 74.50374198 29.56970159 76.45424995 30.30273438 78.40429688 C30.65013672 79.34208984 30.99753906 80.27988281 31.35546875 81.24609375 C31.67153076 82.08841553 31.98759277 82.9307373 32.31323242 83.79858398 C33 86 33 86 33 89 C29.05926656 87.74236529 25.31449426 86.31260232 21.55859375 84.58203125 C20.56279297 84.13279297 19.56699219 83.68355469 18.54101562 83.22070312 C16.46434003 82.27842301 14.39141872 81.32782661 12.32226562 80.36914062 C10.83049805 79.70108398 10.83049805 79.70108398 9.30859375 79.01953125 C8.40939209 78.60807861 7.51019043 78.19662598 6.58374023 77.77270508 C3.51589113 76.8552202 2.00964734 76.93357285 -1 78 C-3.18699239 79.6235688 -3.18699239 79.6235688 -5.1796875 81.75390625 C-5.94410156 82.52669922 -6.70851562 83.29949219 -7.49609375 84.09570312 C-8.28113281 84.90974609 -9.06617188 85.72378906 -9.875 86.5625 C-10.65230469 87.34947266 -11.42960937 88.13644531 -12.23046875 88.94726562 C-16.48192736 93.28089528 -20.57430465 97.70893481 -24.50268555 102.33764648 C-26.46110326 104.51192762 -28.63751036 106.28182571 -31 108 C-29.51146259 100.86246313 -27.58289885 93.92261896 -25.5 86.9375 C-24.8839248 84.86372387 -24.26931021 82.78951319 -23.65625 80.71484375 C-23.38619141 79.80855225 -23.11613281 78.90226074 -22.83789062 77.96850586 C-21.81200179 74.33395388 -20.91595068 70.66380272 -20 67 C-29.57 62.71 -39.14 58.42 -49 54 C-49 53.01 -49 52.02 -49 51 C-48.14921875 50.78085937 -47.2984375 50.56171875 -46.421875 50.3359375 C-37.75428607 48.06761104 -29.17233163 45.59125883 -20.61621094 42.93115234 C-19.79926758 42.68059082 -18.98232422 42.4300293 -18.140625 42.171875 C-17.41391602 41.9459668 -16.68720703 41.72005859 -15.93847656 41.48730469 C-14 41 -14 41 -11 41 C-10.79375 39.741875 -10.5875 38.48375 -10.375 37.1875 C-9.15415331 31.013002 -7.19205263 25.11429077 -5.25683594 19.13623047 C-3.22085253 12.81112543 -1.47494185 6.48198131 0 0 Z " fill="#EEE429" transform="translate(255,207)"/>
</svg>
